<?xml version="1.0" encoding="UTF-8" standalone="no"?>
<svg
   width="632"
   height="821"
   fill="none"
   version="1.1"
   id="svg59"
   sodipodi:docname="avatar.svg"
   inkscape:version="1.4 (86a8ad7, 2024-10-11)"
   xmlns:inkscape="http://www.inkscape.org/namespaces/inkscape"
   xmlns:sodipodi="http://sodipodi.sourceforge.net/DTD/sodipodi-0.dtd"
   xmlns="http://www.w3.org/2000/svg"
   xmlns:svg="http://www.w3.org/2000/svg">
  <sodipodi:namedview
     id="namedview59"
     pagecolor="#ffffff"
     bordercolor="#000000"
     borderopacity="0.25"
     inkscape:showpageshadow="2"
     inkscape:pageopacity="0.0"
     inkscape:pagecheckerboard="0"
     inkscape:deskcolor="#d1d1d1"
     showguides="true"
     inkscape:zoom="0.49147381"
     inkscape:cx="26.451053"
     inkscape:cy="499.51797"
     inkscape:window-width="1920"
     inkscape:window-height="1009"
     inkscape:window-x="1912"
     inkscape:window-y="-8"
     inkscape:window-maximized="1"
     inkscape:current-layer="svg59">
    <sodipodi:guide
       position="0,821"
       orientation="1,0"
       id="guide59"
       inkscape:locked="false" />
    <sodipodi:guide
       position="632,821"
       orientation="1,0"
       id="guide60"
       inkscape:locked="false" />
  </sodipodi:namedview>
  <defs
     id="defs59">
    <clipPath
       id="a">
      <path
         fill="#fff"
         d="M0 0h632v821H0z"
         id="path59" />
    </clipPath>
  </defs>
  <path
     id="path137"
     style="display:inline;fill:#ffffff;stroke-width:1.45605;stroke-linecap:square;stroke-miterlimit:30;paint-order:stroke fill markers"
     inkscape:label="B"
     d="M 160.71289 11.300781 L 160.01953 14.072266 L 160.74414 36.205078 L 162.57031 67.375 L 175.10156 113.91016 L 180.26562 123.98438 L 210.42773 167.875 L 278.43555 147.2207 L 305.63867 174.92773 L 377.16992 194.57422 L 435.92188 346.78906 L 451.94531 339.00586 L 462.09375 329.81055 L 479.91406 327.11719 L 484.76562 327.25195 L 497.36523 311.35156 L 504.77539 310.54297 L 506.39258 303.53711 L 509.7207 295.45117 L 512.49219 282.66797 L 512.11328 275.86719 L 518.94727 286.22656 L 521.9375 287.89453 L 524.70898 279.20508 L 523.32227 264.40625 L 520.55273 247.08984 L 520.30078 239.84961 L 517.78125 226.75195 L 514.57031 214.41016 L 501.41016 182.60938 L 480.56641 150.74805 L 475.5918 146.15039 L 493.91602 112.46094 L 509.82031 70.753906 L 513.02734 48.669922 L 498.42188 52.054688 L 468.14453 75.742188 L 426.64648 88.208984 L 400.46875 60.259766 L 386.61719 50.625 L 380.82227 46.972656 L 366.6543 41.746094 L 353.30469 39.732422 L 341.21484 41.431641 L 333.1543 45.021484 L 323.33203 43.322266 L 302.74023 40.236328 L 280.00977 43.572266 L 266.15625 47.917969 L 260.48828 51.632812 L 252.30273 48.798828 L 231.52148 39.732422 L 187.00195 21.470703 L 165.79883 12.75 L 163.31055 11.820312 L 160.71289 11.300781 z M 282.25586 156.73633 L 228.32812 219.24023 L 220.13477 264.97266 L 230.23438 315.85352 L 258.43555 346.15039 L 292.24414 369.96484 L 284.73242 368.06445 L 278.0625 364.63477 L 273.10938 379.21289 L 262.91406 407.12891 L 220.70508 453.81641 L 192.88477 514.79297 L 184.70312 725.6875 L 177.75586 774.32812 L 185.73828 821 L 198.55078 821 L 197.49805 810.60352 L 199.42578 770.44141 L 202.17578 724.77734 L 248.06641 722.38867 L 214.97266 731.92969 L 220.39062 777.62695 L 210.49609 819.31836 L 206.80469 821 L 425.65234 821 L 425.26953 819.34766 L 418.43945 805.60742 L 409.30273 759.72461 L 409.30273 727.21875 L 427.63672 721.13281 L 428.5 753.24609 L 429.08789 796.70508 L 430.67773 819.14258 L 430.80078 821 L 574.89258 821 L 579.37109 817.19922 L 607.40234 783.78711 L 606.27734 754.30664 L 606.11133 727.36523 L 595.20312 711.70898 L 584.95898 702.88086 L 553.02148 693.0957 L 582.00195 673.27539 L 576.42188 665.5293 L 560.68164 649.37305 L 561.18359 635.04883 L 549.35742 610.73242 L 534.19922 556.01758 L 509.21484 476.31836 L 496.89062 459.32812 L 480.40039 449.41797 L 441.00977 435.75977 L 419.10742 427.93164 L 401.78516 406.0293 L 385.87695 387.875 L 379.38281 386.125 L 385.04102 427.47852 L 387.42383 441.36328 L 353.18945 394.64844 L 349.90234 380.07227 L 324.75781 378.18555 L 316.91211 376.20117 L 340.375 371.30469 L 382.86914 348.81836 L 410.11914 314.70898 L 324.74805 238.86719 L 295.21289 178.65234 L 282.25586 156.73633 z M 193.45703 433.80664 L 164.49023 444.00195 L 138.67188 457.24609 L 121.23438 470.67969 L 119.71094 479.44531 L 121.61719 479.1582 C 122.56996 479.34875 199.17187 438.57031 199.17188 438.57031 L 193.45703 433.80664 z M 130.88086 777.39062 L 78.587891 804.24414 L 76.126953 821 L 153.89062 821 L 130.88086 777.39062 z " />
  <path
     id="path138"
     style="display:inline;fill:#000000;stroke-width:17.3473"
     inkscape:label="TETRA"
     d="M 157.875 10.355469 L 157.875 10.357422 C 156.21978 10.589602 155.42351 11.734161 155.16406 12.431641 C 155.16306 12.442841 155.16116 12.453544 155.16016 12.464844 C 155.16023 12.466844 155.16029 12.470563 155.16016 12.476562 C 155.15998 12.488162 155.15825 12.500019 155.1582 12.511719 C 155.158 12.515719 155.15839 12.517284 155.1582 12.521484 C 155.1552 12.554884 155.15244 12.589867 155.14844 12.623047 C 155.14144 12.671147 155.13335 12.718095 155.12305 12.765625 C 155.11165 12.815625 155.10079 12.866376 155.08789 12.916016 C 155.08489 12.927416 155.08112 12.937819 155.07812 12.949219 L 155.08984 12.957031 C 154.65749 15.015181 155.2056 21.312851 157.19141 41.644531 C 160.22876 72.743431 164.62826 93.351073 172.05859 111.30078 L 176.06836 120.99023 L 173.02539 124.63281 C 171.3516 126.63675 163.76824 134.85332 156.17578 142.89062 C 126.08535 174.74408 113.58017 205.18421 121.51562 227.25195 L 123.62891 233.13281 L 120.29883 243.81445 C 115.62485 258.80814 115.51601 273.31593 120.00586 282.89648 C 123.39256 290.12301 125.43313 292.13278 122.33594 285.19141 C 119.45277 278.7297 119.8234 257.24166 123.01367 245.89062 L 125.43164 237.28516 L 124.82617 245.94141 C 124.37514 252.39006 124.70715 255.90202 126.12695 259.71094 C 127.17513 262.52306 128.79792 267.14832 129.73242 269.98828 C 137.77979 294.44366 145.61799 309 150.74023 309 C 151.55405 309 150.7965 307.88044 149.05664 306.51172 C 137.95471 297.77897 133.88486 269.16746 141.16016 250.99414 C 145.07934 241.20411 145.51355 242.09673 143.93945 256.7168 C 142.4464 270.58413 143.39394 278.30756 148.0918 290.5625 C 149.68085 294.70776 151.46579 299.40765 152.05664 301.00586 C 152.64757 302.60406 154.40475 305.39575 155.96289 307.20898 C 157.90166 309.46522 158.79687 311.88345 158.79688 314.87305 C 158.79688 320.85846 162.62911 330.60561 166.87695 335.41797 L 170.40234 339.4082 L 167.54297 334.24414 C 164.4646 328.6816 162.57329 316.98315 163.89844 311.70312 C 164.68741 308.55968 164.70902 308.5742 166.96875 313.64648 C 169.94825 320.33434 177.44958 327.97418 184.61328 331.61914 C 187.76877 333.22471 191.72124 335.50634 193.39648 336.6875 C 195.07164 337.86884 197.19474 338.83398 198.11328 338.83398 C 199.03175 338.83398 201.53228 341.75869 203.67188 345.33203 C 205.81148 348.9054 209.33074 353.16556 211.49219 354.79883 L 215.42188 357.76758 L 211.20703 352.23047 C 204.59424 343.54426 205.52463 341.07677 213.21875 346.89844 C 215.69779 348.77417 218.33078 350.30859 219.07031 350.30859 C 219.80983 350.30859 222.50867 351.82546 225.06836 353.67969 C 231.25911 358.16423 242.03025 363.53833 248.11133 365.17578 C 250.81706 365.90426 253.9038 366.81427 254.96875 367.19727 C 256.03369 367.58039 255.05117 366.05849 252.78711 363.81641 C 249.87515 360.93267 248.08768 357.65915 246.67578 352.62695 C 244.87823 346.22051 244.74827 341.10752 246.52539 346.70703 C 247.37077 349.37057 260.40589 361.78516 262.35742 361.78516 C 263.07634 361.78516 262.07249 360.10578 260.125 358.05469 C 258.17997 356.00362 256.20574 353.03477 255.74219 351.45703 L 254.89844 348.58789 L 257.625 351.10352 C 259.12523 352.48703 263.32031 354.97821 266.94727 356.63867 L 273.54297 359.65625 L 273.54297 366.86523 L 273.54297 374.07227 L 262.92773 375.54883 C 243.14187 378.29889 238.26043 380.95741 228.32031 394.39844 C 206.80054 423.49753 201.29236 429.19312 191.5 432.4668 C 147.33898 447.23031 117.12535 466.48394 110.65234 483.98828 C 104.5541 500.47928 91.288647 554.85125 82.041016 601.25586 C 75.290821 635.12905 76.399065 631.98856 64.447266 651.08984 C 54.659227 666.73303 41.837183 688.76001 37.199219 697.89844 C 33.885484 704.42768 34.408438 708.22821 40.470703 721.66211 C 46.605045 735.25582 46.539734 737.0971 39.634766 745.63086 C 33.105449 753.70035 31.858567 755.98062 26.375 769.84766 C 21.457619 782.28289 21.472818 781.94676 25.1875 797.53906 C 26.802578 804.31822 28.43255 813.42977 28.810547 817.78711 C 28.926481 819.12373 29.048598 820.02856 29.171875 821 L 86.705078 821 C 94.460253 804.82284 106.37457 794.67323 118.74805 793.13867 C 123.23009 792.58303 127.76451 793.14446 132.17188 794.94727 C 137.45626 797.10592 139.19256 799.80116 147.98047 821 L 192.22852 821 C 192.26322 813.90428 192.57841 811.58594 193.8457 811.58594 C 195.21928 811.58594 195.42052 812.77645 194.88672 817.78516 C 194.75863 818.98748 194.76902 819.98756 194.76367 821 L 199.01758 821 L 199.26953 811.01172 L 199.53125 800.68555 L 204.99609 800.75781 C 213.47999 800.87128 214.90503 807.35171 206.99805 809.86133 C 205.70769 810.27077 203.38215 813.02107 201.83008 815.97266 L 199.1875 821 L 232.53516 821 C 230.99192 820.27887 229.4466 819.6726 227.9043 818.91406 C 212.25523 811.21767 212.5691 811.83436 218.38672 800.26367 C 229.22841 778.70064 230.59417 768.53754 226.08789 742.9668 C 225.27563 738.35869 224.93029 734.39229 225.31836 734.15234 C 226.73768 733.27513 256.06311 726.84028 266.65625 725.08203 C 285.57491 721.94191 305.15381 720.56172 325.12109 720.93555 C 345.08838 721.30943 365.44537 723.43686 385.92188 727.31445 C 406.21283 731.15696 404.60325 729.56192 403.28711 744.53906 C 401.5582 764.21442 404.58481 779.64823 414.49414 801.70312 C 419.38505 812.5888 419.4631 813.63728 415.57031 816.06836 C 412.80616 817.79461 409.58098 819.38548 406.43945 821 L 419.23047 821 C 418.9487 820.129 418.52024 819.03581 418.64258 818.8125 C 418.83459 818.46188 419.47217 819.00322 420.39648 820.73047 C 420.45217 820.8345 420.41866 820.89386 420.4707 821 L 479.79688 821 C 482.15193 816.95036 484.47981 813.10962 486.94531 808.14258 C 493.19157 795.55866 503.08533 789.50009 513.25 788.94727 C 528.66942 788.1087 544.58341 800.04541 549.4707 821 L 593.375 821 C 595.05662 818.04027 597.00243 814.93373 599.61328 811.31836 C 609.47633 797.66054 610.29489 793.97744 608.54297 771.16016 C 607.7627 761.01209 607.41893 747.18026 607.77539 740.42383 C 608.35781 729.38359 608.18328 727.74634 606.06641 724.26562 C 601.60755 716.93432 589.95302 703.56039 587.06641 702.46289 L 584.17578 701.36328 L 584.77148 686.6543 L 585.36719 671.94531 L 581.56055 668.9082 C 579.46632 667.23717 574.10393 661.72863 569.64453 656.66797 L 561.53711 647.4668 L 562.27344 641.20312 C 562.97156 635.26324 562.68086 634.27143 556.65625 622 C 551.99561 612.50688 548.58108 602.94753 543.83789 586.11133 C 537.97075 565.29079 530.43608 540.20121 516.13477 493.89062 C 505.25925 458.6734 500.55574 454.66157 450.56836 437.95898 C 426.93776 430.06315 420.41287 427.44054 418.12109 424.91602 C 416.54333 423.17808 408.31502 413.10125 399.83594 402.52344 C 382.58546 381.00313 384.07023 382.03222 363.28125 377.14648 L 349.17578 373.83203 L 349.51172 370.54297 C 349.82633 367.46692 350.63414 366.97745 361.97461 362.99414 C 368.64387 360.65157 374.71093 358.35954 375.45703 357.89844 C 377.88943 356.39508 376.93763 361.06832 373.90234 365.53516 C 368.97112 372.79207 378.99604 368.50145 388 359.50195 L 391.73047 355.77539 L 391.73047 359.9043 C 391.73047 365.82331 388.59394 372.8334 384.42578 376.23242 L 380.83008 379.16602 L 384.49805 377.36133 C 389.08208 375.10685 392.4655 370.57711 398.11914 359.11914 C 403.39567 348.42527 404.36623 347.49497 403.08203 354.36914 C 401.86122 360.90374 400.59753 363.22338 394.875 369.43164 C 388.65799 376.17624 390.57575 377.04632 406.93359 374.9043 C 410.24693 374.47046 412.38477 374.63737 412.38477 375.32812 C 412.38477 376.80824 404.65933 383.58594 402.97266 383.58594 C 402.25898 383.58594 401.9731 383.8852 402.33984 384.25195 C 403.4115 385.3236 407.96497 382.49145 413.6875 377.19141 C 416.97803 374.14378 420.58039 371.96902 423.13281 371.49023 C 427.74979 370.62406 436.16315 363.78827 441.24609 356.77148 C 443.6156 353.50042 444.5075 352.85824 444.48828 354.43945 C 444.44508 358.14659 440.36155 365.88176 435.73438 371.01953 C 432.81959 374.2558 432.15492 375.47788 433.78125 374.61328 C 437.04757 372.87694 445.17794 363.5757 448.75391 357.48242 C 452.34182 351.36888 452.39528 351.38523 451.29688 358.33398 C 450.25543 364.92212 448.61764 367.63461 443.21094 371.72266 C 438.31069 375.42773 442.99149 374.41184 448.5293 370.56836 C 453.90113 366.84011 461.57025 355.0758 465.72852 344.1875 C 466.85283 341.24358 468.14697 338.83594 468.60352 338.83594 C 469.06004 338.83594 471.78204 336.76869 474.65234 334.24219 C 478.98238 330.43069 479.7599 330.07601 479.21484 332.16016 L 478.55664 334.67188 L 482.11523 332.13867 C 484.07206 330.7453 487.40512 327.51896 489.52344 324.96875 L 493.375 320.33203 L 492.5957 329.41602 C 491.8141 338.51103 488.71917 347.56224 484.91602 351.88281 C 483.17347 353.86283 483.16559 353.99705 484.8418 353.07227 C 494.37053 347.81634 507.57852 320.06894 507.61523 305.22656 C 507.62123 303.46588 508.72546 299.86246 510.07422 297.21875 C 511.42293 294.57501 512.87724 289.81919 513.30469 286.65039 L 514.08203 280.88867 L 515.51367 285.47852 C 518.0963 293.75309 518.59285 314.15997 516.29688 317.66406 C 515.21163 319.32049 514.5535 320.90505 514.83398 321.18555 C 515.11442 321.46599 516.14779 320.46735 517.13086 318.9668 C 520.94634 313.14368 522.69066 307.11634 522.66797 299.82227 C 522.65657 295.72012 523.49301 288.60235 524.53125 284.00586 C 526.31316 276.11686 526.30106 275.08811 524.31055 265.64648 C 523.15073 260.14535 521.84982 250.99824 521.41992 245.31836 C 519.12977 215.0554 507.0578 186.05402 483.39062 153.95508 C 476.66355 144.83139 476.72802 146.55564 482.80078 137.79883 C 496.48317 118.0691 505.62774 95.316312 517.42969 51.636719 C 517.70429 50.619949 517.64186 50.515023 517.80273 49.845703 C 517.93923 49.478713 518.07998 49.150176 518.20312 48.697266 C 521.22689 37.571246 516.68505 37.444926 516.10547 37.472656 C 516.06697 37.474656 516.04688 37.476562 516.04688 37.476562 C 515.31551 37.177112 506.27969 39.32554 495.9668 42.25 C 472.26522 48.97119 414.23446 61.175548 406.13281 61.142578 C 404.83804 61.137578 399.55921 58.108333 394.40234 54.414062 C 378.40179 42.951622 358.91966 36.976889 345.49023 39.412109 C 337.03712 40.944939 332.0625 43.335427 332.0625 45.867188 C 332.0625 47.594687 332.21879 47.594707 334.12695 45.867188 C 342.25445 38.511938 364.37496 39.070086 377.93359 46.972656 L 380.82812 48.660156 L 377.95898 47.960938 C 376.38124 47.576698 370.96092 47.096801 365.91211 46.894531 C 360.8634 46.691901 358.92721 46.748378 361.60938 47.017578 C 364.29156 47.286808 366.48633 47.942209 366.48633 48.474609 C 366.48633 49.007049 370.09421 49.805167 374.50391 50.248047 C 379.95483 50.795457 385.05312 52.26617 390.43164 54.84375 C 401.00128 59.90919 401.54145 61.136358 393.23242 61.210938 C 386.59738 61.270837 386.58003 61.279244 389.43555 63.214844 C 393.58788 66.029424 403.32305 75.182821 402.76172 75.744141 C 402.49938 76.006691 399.68269 74.902736 396.50195 73.291016 C 389.10398 69.542156 373.21411 63.217559 372.63867 63.792969 C 372.39674 64.034999 374.24206 65.153617 376.73828 66.279297 C 379.23445 67.404917 382.42548 69.549582 383.83008 71.044922 C 386.16605 73.531422 385.82918 73.461994 379.88086 70.240234 C 376.30389 68.302844 370.66484 65.741968 367.34961 64.548828 C 362.20234 62.696388 361.82299 62.372601 364.74805 62.337891 L 368.17383 62.296875 L 363.89062 60.001953 C 358.87874 57.316233 355.53605 57.159614 351.56836 59.427734 C 346.75805 62.177584 346.60921 61.372048 350.98633 56.273438 C 354.94962 51.656838 355.03952 51.375182 352.67969 51.013672 C 345.18161 49.864722 333.33909 59.510284 339.39453 61.833984 C 340.31619 62.187714 340.74385 63.381966 340.4082 64.666016 C 340.04668 66.048186 340.41872 66.911079 341.39453 66.949219 C 342.25697 66.983219 340.06133 67.938106 336.51562 69.072266 C 332.96994 70.206516 328.85495 71.986664 327.36914 73.027344 C 325.88338 74.068074 324.16598 74.917969 323.55273 74.917969 C 321.93639 74.917969 329.73215 69.208831 333.7832 67.425781 C 336.91124 66.049081 337.01696 65.837912 334.93164 65.107422 C 331.95012 64.063002 316.18309 57.545679 307.39258 53.724609 L 300.50781 50.732422 L 306.24414 51.439453 C 309.39965 51.828163 315.46661 53.344377 319.72656 54.810547 C 328.11929 57.698877 329.53373 57.683595 323.89062 54.765625 C 316.00506 50.687695 298.97088 47.385756 285.15625 47.253906 L 271.82031 47.126953 L 278.10156 45.597656 C 294.43159 41.625166 308.49952 41.036856 318.44336 43.910156 C 326.22244 46.157866 327.85396 46.328409 328.70312 44.974609 C 331.43953 40.612429 299.40721 38.045569 285.01758 41.474609 C 275.46787 43.750309 261.02547 48.576859 260.3125 49.730469 C 259.96496 50.292699 257.24773 49.760958 254.27539 48.548828 C 251.30251 47.336758 228.47532 37.904621 203.54688 27.587891 C 175.72548 16.073901 161.98994 10.827559 159.06836 10.511719 C 159.06236 10.501519 159.03129 10.504141 159.02539 10.494141 C 158.93209 10.474841 158.83656 10.461819 158.74219 10.449219 C 158.59169 10.427719 158.44026 10.413837 158.28906 10.398438 C 158.15099 10.384937 158.01291 10.369669 157.875 10.355469 z M 162.29102 11.810547 C 163.24372 11.810547 165.04032 12.495301 166.28516 13.332031 C 167.53004 14.168761 180.68282 19.911227 195.51367 26.091797 C 242.81937 45.805907 253.76551 50.596891 262.31445 55.337891 L 270.67188 59.972656 L 266.08203 59.853516 C 256.95603 59.615316 250.91557 57.818634 236.82227 51.152344 C 228.93353 47.420874 218.09888 42.336142 212.74414 39.851562 C 189.1135 28.886983 158.38916 11.810547 162.29102 11.810547 z M 166.78711 28.789062 C 167.50273 28.197913 168.4045 29.107359 170.11719 31.005859 C 195.14769 58.751889 196.47902 60.071481 206.76172 67.306641 L 213.99414 72.394531 L 205.89844 75.091797 L 197.80469 77.789062 L 206.69922 77.789062 C 213.10214 77.789062 216.8126 78.393656 219.93945 79.947266 C 225.19382 82.557855 225.06969 82.710318 215.16211 85.851562 C 210.83391 87.223827 206.06209 89.258269 204.55859 90.371094 L 201.82617 92.394531 L 204.69336 91.673828 C 219.11342 88.053795 219.25896 88.385575 209.31055 102.22461 C 204.90755 108.34952 199.09919 117.34622 196.40234 122.21875 C 193.70546 127.09127 190.98266 131.08875 190.35156 131.10156 C 187.3478 131.16336 177.17163 112.0292 173.89844 100.16406 C 165.87387 71.075593 162.21072 45.683341 164.58008 35.582031 C 165.54402 31.472471 166.07146 29.380212 166.78711 28.789062 z M 381.78516 48.912109 C 382.20586 48.491439 382.89377 48.491439 383.31445 48.912109 C 383.73512 49.332959 383.39055 49.675781 382.54883 49.675781 C 381.70745 49.675781 381.36448 49.332779 381.78516 48.912109 z M 509.73828 50.519531 L 509.19727 55.548828 C 506.43585 81.125978 494.32447 113.12029 480.25781 132.00586 C 476.37979 137.21241 472.76333 141.47266 472.2207 141.47266 C 471.373 141.47266 456.37566 122.68027 448.15234 111.31445 L 445.48047 107.62305 L 447.98633 107.24023 C 449.36456 107.02982 453.02997 108.43375 456.13086 110.36133 C 460.67538 113.1867 461.53963 113.43592 460.58398 111.65039 C 458.97656 108.64691 452.98185 104.20263 446.81445 101.44141 L 441.72266 99.162109 L 450.25586 95.074219 C 459.86246 90.470397 461.24956 90.27642 467.09961 92.720703 C 472.90258 95.145318 473.1829 93.995008 467.57031 90.789062 C 461.70019 87.436247 461.7154 87.283996 468.32227 83.443359 C 477.16498 78.302954 495.07992 64.421397 504.95117 55.060547 L 509.73828 50.519531 z M 345.25781 61.152344 C 345.57334 61.152344 345.83008 61.409059 345.83008 61.724609 C 345.83008 62.040159 345.5732 62.298828 345.25781 62.298828 C 344.94225 62.298828 344.68359 62.040149 344.68359 61.724609 C 344.68359 61.409059 344.94239 61.152344 345.25781 61.152344 z M 369.16211 62.681641 C 368.7414 63.102481 369.08602 63.447266 369.92773 63.447266 C 370.76911 63.447266 371.11405 63.102311 370.69336 62.681641 C 370.27267 62.260971 369.58278 62.260971 369.16211 62.681641 z M 321.29688 76.068359 C 321.61259 76.068359 321.54997 76.583744 321.16016 77.214844 C 320.77017 77.845924 320.19251 78.363281 319.87695 78.363281 C 319.56122 78.363281 319.62384 77.845924 320.01367 77.214844 C 320.40364 76.583744 320.98138 76.068359 321.29688 76.068359 z M 252.43164 106.21094 C 252.91308 106.69249 252.29192 108.44714 251.05078 110.10938 C 248.22389 113.89566 243.70703 117.02981 243.70703 115.20508 C 243.70703 113.19484 251.4418 105.22109 252.43164 106.21094 z M 259.04688 109.35547 C 259.5014 109.49321 259.77148 109.83192 259.77148 110.39844 C 259.77148 110.97806 258.0318 112.52613 255.90625 113.83984 C 250.28268 117.31539 248.47961 116.78778 252.3125 112.78711 C 254.66155 110.3352 257.68327 108.94233 259.04688 109.35547 z M 432.71875 112.66602 L 436.19922 115.5957 C 440.43851 119.16297 440.61621 119.17326 441.54102 115.94141 C 442.53834 112.45564 454.4101 124.88095 463.64648 139.07617 C 467.17352 144.49682 470.9999 150.29747 472.14844 151.9668 C 478.58394 161.319 497.2792 196.7574 502.01953 208.58984 C 507.93381 223.35265 509.11434 224.57483 505.19336 211.875 C 502.41396 202.87265 496.22513 190.235 485.35547 171.36523 C 478.61551 159.66462 475.16865 152.07871 479.34766 158.14258 C 496.56121 183.11989 510.04812 212.13606 509.99805 224.08984 C 509.97475 229.46139 505.66499 247.0556 505.35938 243.02344 C 505.15859 240.37619 499.82952 228.62007 499.68555 230.50781 C 499.63305 231.19788 500.57946 234.63867 501.78906 238.1543 C 510.96712 264.83074 513.4054 287.54441 508.16211 297.5332 C 506.05727 301.54297 506.05641 301.54247 505.23242 298.67383 C 504.56329 296.34486 504.36549 296.7766 504.17969 300.96875 C 503.71566 311.44145 502.11599 312.18161 501.99805 301.97852 C 501.92335 295.52937 501.08622 289.58836 499.58984 284.9043 C 498.32765 280.95328 497.29492 276.98375 497.29492 276.08203 C 497.29492 269.69429 495.10637 277.82071 494.38281 286.89453 L 493.48828 298.09961 L 491.87695 288.34766 C 490.34213 279.05356 490.43117 266.99968 492.07812 260.80859 C 492.498 259.23085 491.07421 261.55301 488.91406 265.9707 C 479.36779 285.49379 463.4277 287.56137 445.08594 271.65234 C 442.58662 269.48445 442.41863 269.16159 444.47852 270.47461 C 448.2179 272.8583 449.7694 272.77144 447.80664 270.29102 C 446.94049 269.19626 448.53671 270.24387 451.35156 272.61719 C 461.38094 281.07328 465.41473 280.18351 469.23828 268.67188 C 475.09705 251.03277 459.20918 188.93267 440.91211 157.95508 C 434.12225 146.45961 433.86827 146.31997 436.50586 155.5293 C 437.63552 159.47368 440.4835 169.67159 442.83398 178.19141 C 445.18444 186.71127 448.84661 198.24405 450.97266 203.82031 C 454.9502 214.2526 455.71194 217.10914 453.50391 213.30664 C 449.60468 206.59166 441.23799 181.84664 434.83984 158.11133 C 432.45816 149.27592 429.26959 138.67831 427.75586 134.56055 C 424.23409 124.97995 424.26263 124.55997 428.86133 118.0918 L 432.71875 112.66602 z M 272.10547 115.82031 C 273.84607 115.48611 275.44059 116.24967 276.90039 118.10547 C 280.14074 122.22499 279.92836 123.86768 275.17383 131.46875 C 270.40918 139.08608 270.94557 138.93406 264.62109 134.45508 L 259.7168 130.98242 L 262.14258 126.66797 C 265.89931 119.98373 269.20446 116.37731 272.10547 115.82031 z M 417.28125 121.10547 C 419.29901 121.38057 421.40842 125.61283 425.98242 135.94141 C 427.84896 140.1562 429.08135 143.89913 428.7207 144.25977 C 427.31996 145.6605 425.89638 144.67685 419.53906 137.91992 C 410.77965 128.60985 410.52173 128.05943 413.23633 124.41992 C 414.89222 122.19987 416.07058 120.94042 417.28125 121.10547 z M 172.85938 131.71875 L 170.23438 136.30859 C 168.78983 138.83298 165.31563 144.63783 162.51562 149.20703 C 159.71561 153.77625 155.97937 161.26202 154.21289 165.84375 C 152.4464 170.42546 147.0596 182.69428 142.24023 193.10742 C 137.42086 203.52057 132.10674 215.00985 130.43359 218.63867 C 127.75931 224.43838 125.57547 226.97691 125.49219 224.37695 C 125.47699 223.9036 125.00724 221.54153 124.44727 219.12891 C 123.58563 215.41684 123.69745 214.84484 125.17578 215.41211 C 126.34331 215.86035 126.71985 215.55758 126.3125 214.49609 C 122.28731 204.00664 124.42551 197.13309 136.25195 182.54102 C 141.39324 176.19742 147.95396 168.10533 150.83203 164.55859 C 153.71009 161.01189 158.30584 153.89529 161.04297 148.74219 C 163.78008 143.5891 167.5582 137.65141 169.43945 135.54688 L 172.85938 131.71875 z M 162.97852 139.18945 C 163.20724 139.24245 163.33347 139.44859 163.3457 139.82617 C 163.4269 142.32338 148.06179 165.02027 139.04297 175.72461 C 128.28811 188.48949 127.24791 189.26887 129.50586 182.86914 C 133.28129 172.16847 159.54806 138.39128 162.97852 139.18945 z M 380.33008 139.70508 C 380.95479 139.319 383.03062 142.4535 384.94336 146.67188 C 388.99597 155.60966 388.77037 157.24502 384.39453 150.63281 C 380.33031 144.49134 378.88199 140.60005 380.33008 139.70508 z M 477.95312 150.58594 C 478.37007 150.40738 480.34196 152.50787 483.60547 156.99609 C 496.5594 174.81112 510.03412 201.06708 513.98438 216.19531 C 515.90882 223.56557 515.83441 227.76653 513.49219 244.30273 C 512.06922 254.34863 510.59819 256.59666 508.87109 251.36328 C 507.79676 248.10827 507.89792 245.65275 509.38672 238.85742 C 513.2786 221.08785 512.94154 216.98263 506.43359 202.77344 C 497.57274 183.427 494.95536 178.68466 481.62891 157.8418 C 478.67459 153.22118 477.53615 150.76452 477.95312 150.58594 z M 369.41211 152.94727 C 373.80944 152.94727 377.23495 162.43814 374.96875 168.34375 C 373.75803 171.4989 372.20201 170.34124 369.3125 164.13477 C 365.55746 156.06827 365.5847 152.94727 369.41211 152.94727 z M 323.63672 154.19531 C 323.79342 154.67382 323.87079 156.0286 323.91602 158.39844 C 323.97902 161.72582 323.51665 164.42188 322.88281 164.42188 C 321.55106 164.42188 321.55106 159.40032 322.88281 155.24219 C 323.24421 154.1137 323.48009 153.71677 323.63672 154.19531 z M 343.51172 155.63672 C 345.23678 156.46603 345.83008 160.77849 345.83008 170.32031 C 345.83008 176.05851 345.75629 176.12356 340.4043 175.08984 C 333.71426 173.7975 329.17093 159.33477 335.07422 158.12305 C 336.88858 157.75064 339.73087 156.75116 341.39062 155.90234 C 342.23705 155.46948 342.9367 155.36023 343.51172 155.63672 z M 279.47656 171.88086 L 278.71094 176.4707 C 277.67467 182.67701 270.19041 198.43779 264.27344 206.87305 C 260.00018 212.96506 258.99394 213.76367 255.58984 213.76367 C 250.70857 213.76367 250.49902 214.45986 258.95508 202.62891 C 265.6899 193.20615 270.84212 185.54633 276.93945 175.89648 L 279.47656 171.88086 z M 157.09375 180.19727 C 157.57634 179.84805 156.63478 182.6322 154.16992 188.62305 C 152.2463 193.29835 149.61792 198.15775 148.32812 199.41992 C 146.79377 200.92156 147.88269 197.86307 151.47852 190.57227 C 154.70496 184.03033 156.61116 180.54648 157.09375 180.19727 z M 282.11914 183.35547 L 282.97266 194.25586 C 283.44156 200.25131 284.77506 208.89913 285.9375 213.47461 C 287.09992 218.05007 287.75605 221.77447 287.39453 221.75 C 287.03302 221.7255 285.12039 221.00053 283.14453 220.14062 C 281.16867 219.28078 276.52045 217.92876 272.81641 217.13477 C 262.6692 214.95985 262.76207 215.16848 268.30859 206.86523 C 271.04441 202.76966 275.27108 195.80443 277.70117 191.38672 L 282.11914 183.35547 z M 145.59961 202.28906 C 145.91518 202.28906 146.17383 202.54575 146.17383 202.86133 C 146.17383 203.17687 145.91519 203.43555 145.59961 203.43555 C 145.28407 203.43555 145.02734 203.17689 145.02734 202.86133 C 145.02734 202.54578 145.28407 202.28906 145.59961 202.28906 z M 145.51953 211.46875 C 145.75231 211.46875 143.36758 217.79246 140.2207 225.52344 C 137.07381 233.2544 133.33912 244.22276 131.91992 249.89844 L 129.33984 260.21875 L 128.65625 255.12891 C 127.88986 249.41493 129.39496 239.73778 132.13477 232.75586 C 133.79717 228.51957 144.51825 211.46875 145.51953 211.46875 z M 252.35547 215.23828 C 253.15449 215.09666 254.01642 215.2288 255.10352 215.4668 L 258.83398 216.28711 L 255.57422 219.75977 C 253.78082 221.67027 249.81418 225.23334 246.75977 227.67773 C 243.70535 230.12209 241.55956 232.12305 241.99219 232.12305 C 243.2689 232.12305 249.57154 227.47043 256.18555 221.64453 L 262.35352 216.21094 L 270.5293 219.14648 C 288.90996 225.74391 290.41166 226.97717 294.70703 239.00781 C 304.61499 266.7584 324.15277 285.75944 353.28906 295.98242 C 355.81347 296.86818 361.37512 299.99371 365.64844 302.92773 C 373.40657 308.25427 374.00186 310.0895 367.98633 310.13086 C 366.60359 310.13986 365.15369 310.66578 364.76367 311.29688 C 363.93172 312.64231 364.3341 312.6489 370.83203 311.39258 C 374.78966 310.6273 376.58609 310.88303 380.01172 312.69922 C 382.3542 313.94113 386.85232 315.90749 390.00781 317.06836 L 395.74414 319.17773 L 391.72852 320.83203 C 389.51968 321.74223 385.13012 322.92541 381.97461 323.46094 L 376.23828 324.43555 L 381.17578 324.81836 C 383.89066 325.02962 388.66627 324.45446 391.78906 323.53906 C 398.59869 321.5429 398.78889 322.14865 393.98828 330.51953 C 385.06663 346.07617 362.39423 360.41785 328.99023 371.63867 C 316.31493 375.89646 313.50683 375.50275 297.33398 367.1875 C 266.88069 351.53001 251.41188 338.66469 245.19727 323.82617 C 239.25655 309.64179 239.12398 307.25727 244.70312 314.92773 C 248.8089 320.57254 255.4491 326.21289 257.98828 326.21289 C 258.43604 326.21289 256.43771 323.51141 253.54883 320.20898 C 248.73584 314.70713 246.49319 310.04503 249.57422 311.94922 C 251.22547 312.96979 267.03069 317.04354 267.50391 316.57031 C 267.70205 316.37217 263.39526 314.21682 257.93359 311.7832 C 247.6806 307.21465 243.69317 303.337 241.97266 296.25586 L 241.24609 293.26367 L 247.92773 296.39844 C 251.60248 298.12322 258.16287 300.46776 262.50586 301.60938 L 270.40039 303.68555 L 264.48633 305.93359 C 254.76879 309.62605 257.49579 309.45645 274.00195 305.34375 L 278.47852 304.23047 L 271.13281 301.64258 C 249.69772 294.09563 238.69819 282.13598 235.38086 262.76953 C 233.89362 254.08707 234.42158 252.83775 238.4668 255.48828 C 242.08523 257.85968 243.70703 257.86823 243.70703 255.52148 C 243.70703 254.31153 244.33237 253.91791 245.52344 254.375 C 246.52171 254.75805 247.81106 255.07227 248.39062 255.07227 C 248.97008 255.07227 249.44768 258.29782 249.45117 262.24219 C 249.46257 274.65174 250.91685 277.78321 258.16406 280.98828 C 270.03404 286.23775 274.67308 284.25909 278.98828 272.10938 C 281.27648 265.66679 281.32941 265.654 289.43164 269.42578 C 297.07566 272.98443 297.54782 272.979 294.19531 269.41406 C 292.713 267.83622 292.13091 266.54688 292.90234 266.54688 C 295.87909 266.54688 286.77335 255.82085 280.17578 251.55664 C 269.31389 244.53626 261.9952 242.2295 248.49023 241.57031 C 234.66126 240.89532 234.94772 241.53099 242.52344 228.32227 C 248.13259 218.54253 249.95836 215.66327 252.35547 215.23828 z M 455.41406 216.05859 C 455.72961 216.05859 455.98633 216.31532 455.98633 216.63086 C 455.98633 216.94643 455.72972 217.20508 455.41406 217.20508 C 455.09848 217.20508 454.83984 216.94641 454.83984 216.63086 C 454.83984 216.31531 455.09848 216.05859 455.41406 216.05859 z M 126.66797 227.53125 C 127.29907 227.53125 127.81445 228.01756 127.81445 228.61133 C 127.81445 229.20516 127.29907 230.01041 126.66797 230.40039 C 126.03688 230.79056 125.51953 230.30424 125.51953 229.32031 C 125.51953 228.3365 126.03689 227.53125 126.66797 227.53125 z M 480.5 228.10547 L 479.65234 240.05664 C 478.46813 256.75733 477.21411 262.52609 472.83789 271.42188 L 469.02734 279.16797 L 472.2207 279.16797 C 484.72883 279.16797 490.44544 258.56498 483.68359 237.85938 L 480.5 228.10547 z M 518.38477 232.69531 L 519.32227 238.43359 C 520.36623 244.83454 518.86944 256.16651 516.05078 263.21094 C 512.17864 272.88843 510.34234 266.15325 513.56445 254.09375 C 514.85408 249.26705 516.46704 242.47691 517.14844 239.00586 L 518.38477 232.69531 z M 305.9375 238.01367 C 306.26237 237.26528 307.1504 238.4685 308.44727 241.97852 C 309.59207 245.07695 313.09185 252.43257 316.22461 258.32422 C 319.35732 264.2159 321.60636 269.35069 321.22266 269.73438 C 320.83884 270.1182 323.49109 273.42937 327.11719 277.09375 L 327.11914 277.09375 C 334.34944 284.40023 334.16495 285.25358 326.32422 280.78906 C 319.01796 276.6289 316.3985 273.91038 311.29102 265.18359 C 306.40838 256.84097 303.85283 250.85103 307.95508 257.36523 C 311.05776 262.29215 318.34429 269.98828 319.90625 269.98828 C 320.53734 269.98828 319.19581 268.05218 316.92578 265.68555 C 311.82466 260.36733 308.67021 254.1579 306.80469 245.75977 C 305.84991 241.46172 305.61263 238.76204 305.9375 238.01367 z M 141.00977 240.1543 C 141.32533 240.1543 141.58398 240.41295 141.58398 240.72852 C 141.58398 241.04407 141.32535 241.30078 141.00977 241.30078 C 140.69422 241.30078 140.4375 241.04407 140.4375 240.72852 C 140.4375 240.41296 140.69421 240.1543 141.00977 240.1543 z M 273.92383 243.97852 C 273.50315 244.39937 273.84788 244.74414 274.68945 244.74414 C 275.53077 244.74414 275.87381 244.39919 275.45312 243.97852 C 275.03244 243.55782 274.34451 243.55782 273.92383 243.97852 z M 490.3457 244.16992 L 490.93555 247.03906 C 491.26026 248.61681 491.60188 250.939 491.69727 252.20117 C 491.86477 254.43705 491.88128 254.43927 492.33594 252.14844 C 492.59245 250.85666 492.25042 248.53263 491.57422 246.98438 L 490.3457 244.16992 z M 279.2793 245.30469 C 277.70157 244.87329 279.50831 246.41261 283.29492 248.72461 C 287.08151 251.03657 290.67002 253.41073 291.26953 254 C 292.35336 255.06513 294.19531 255.46575 294.19531 254.63672 C 294.19531 253.68934 281.96971 246.0404 279.2793 245.30469 z M 305.09766 251.62891 C 305.41322 251.62891 305.66992 251.88563 305.66992 252.20117 C 305.66992 252.51672 305.4132 252.77539 305.09766 252.77539 C 304.78209 252.77539 304.52344 252.51675 304.52344 252.20117 C 304.52344 251.88563 304.78209 251.62891 305.09766 251.62891 z M 520.71094 257.62305 C 522.08463 258.78797 524.02007 273.31655 523.30469 279.35742 C 522.294 287.89117 520.78655 288.52627 518.72461 281.28906 C 515.87643 271.29199 516.00327 269.24529 520.16602 258.00391 C 520.33001 257.5611 520.51472 257.45664 520.71094 257.62305 z M 329.92188 269.51758 C 330.15152 269.32535 334.65709 273.74025 339.93359 279.33008 C 345.21007 284.91989 349.32698 289.49414 349.08203 289.49414 C 345.48908 289.49414 327.92864 271.18552 329.92188 269.51758 z M 298.21094 272.2832 C 297.89539 272.2832 297.63867 272.53991 297.63867 272.85547 C 297.63867 273.17103 297.89541 273.42969 298.21094 273.42969 C 298.5265 273.42969 298.78516 273.17104 298.78516 272.85547 C 298.78516 272.53992 298.5265 272.2832 298.21094 272.2832 z M 464.46484 283.12305 C 465.2736 282.18185 465.14642 286.68931 463.4043 297.43164 C 460.51932 315.22072 453.14484 334.38246 447.7207 338.18164 C 443.11688 341.40627 442.80075 340.08259 447.11914 335.66016 C 452.93474 329.70439 456.53646 320.08549 459.9082 301.5 C 461.91231 290.45275 463.65604 284.06426 464.46484 283.12305 z M 257.98242 285.49805 C 257.67152 285.58015 257.47656 285.78278 257.47656 286.08789 C 257.47656 286.69921 258.25063 287.19922 259.19727 287.19922 C 260.14392 287.19922 260.91992 286.9961 260.91992 286.74805 C 260.91992 286.50002 260.14392 285.99997 259.19727 285.63672 C 258.72395 285.45507 258.29439 285.41624 257.98242 285.49805 z M 153.50195 298 C 153.73276 297.55772 154.59958 298.20894 155.94336 300.25977 C 156.99966 301.87206 157.64039 303.85305 157.36719 304.66211 C 157.0864 305.49392 156.00652 304.46568 154.88086 302.29688 C 153.67712 299.97758 153.27115 298.44234 153.50195 298 z M 492.11523 303.43164 C 492.30083 303.2691 492.43069 303.31327 492.48633 303.5957 C 493.02261 306.31619 490.00657 314.99079 486.36133 321.21094 C 482.7693 327.34021 481.52678 327.80768 484.50391 321.91016 C 485.69859 319.54356 487.89241 313.99191 489.37891 309.57422 C 490.49378 306.26094 491.55838 303.91925 492.11523 303.43164 z M 175.20312 303.51367 C 175.64169 303.40945 176.70803 305.95683 179.33203 312.44336 C 181.75738 318.43881 184.58993 325.27986 185.62695 327.64648 C 188.022 333.11188 187.46382 333.0591 182.58203 327.35547 C 178.0897 322.10721 174.84578 313.22276 174.89062 306.28711 C 174.90203 304.59302 174.94017 303.57626 175.20312 303.51367 z M 451.9707 350.30859 C 452.28628 350.30859 452.54492 350.56713 452.54492 350.88281 C 452.54492 351.19838 452.28612 351.45703 451.9707 351.45703 C 451.65517 351.45703 451.39648 351.19838 451.39648 350.88281 C 451.39648 350.56727 451.65517 350.30859 451.9707 350.30859 z M 277.70898 368.42188 C 278.12396 367.75041 298.58557 381.09962 313.66016 391.87695 C 317.40809 394.55647 317.15128 394.60614 303.375 393.82031 C 291.7296 393.15604 284.51778 391.76213 278.47266 389.00781 C 275.74603 387.76548 275.18013 372.51365 277.70898 368.42188 z M 344.03516 380.49023 C 345.2352 380.05972 345.48141 380.70745 345.56641 382.15039 C 345.83896 386.78669 344.64101 389.04566 341.54297 389.73438 C 339.79924 390.12198 336.43498 390.90751 334.06836 391.48047 C 327.92669 392.96767 328.67178 391.27163 336.77734 385.30469 C 340.68111 382.43088 342.83508 380.92076 344.03516 380.49023 z M 385.06055 389.92969 C 385.59866 389.87949 386.35137 390.30902 387.32227 391.17383 C 392.20172 395.51992 412.80783 420.84663 412.94141 422.66211 C 413.01701 423.68993 414.21304 425.97155 415.59961 427.73438 C 416.9863 429.49723 418.12109 432.16154 418.12109 433.6543 C 418.12109 436.99029 418.66071 437.0975 411.80859 432.39453 C 408.32022 430.00022 402.32949 427.45743 396.52344 425.90625 C 387.86121 423.59201 387.04208 423.13322 387.71289 420.96875 C 388.67476 417.86512 388.71227 418.19718 385.85938 404.58398 C 383.75734 394.55439 383.44634 390.08041 385.06055 389.92969 z M 272.21289 404.7793 C 272.57388 404.6827 272.93281 404.73879 273.32031 404.91211 C 296.72152 415.35759 322.55246 416.69692 340.66602 408.4043 C 346.51245 405.72759 347.14076 405.64188 347.75781 407.43555 C 351.55961 418.48675 354.15123 421.30625 364.76367 425.9375 C 367.91918 427.31453 372.30871 429.88246 374.51758 431.64453 C 376.72641 433.40663 379.65702 435.44636 381.03125 436.17773 C 382.97854 437.21393 383.70059 438.9642 384.30273 444.10938 C 384.72766 447.74041 386.32242 458.94775 387.8457 469.01367 C 390.06857 483.70328 390.32858 487.57146 389.16406 488.61523 C 386.42888 491.06657 370.77642 497.30863 360.39844 500.08594 C 354.69008 501.6136 349.48131 503.40152 348.82227 504.06055 C 345.942 506.94081 367.92615 500.57338 382.70898 494.24609 C 393.69194 489.54522 396.45862 490.69875 391.25977 497.80859 C 390.31611 499.09906 390.01292 500.74369 390.53125 501.75781 C 391.01975 502.71344 391.76419 507.00241 392.18555 511.29102 C 393.04509 520.04054 394.29821 523.56893 404.10156 544.80273 C 413.43237 565.01306 414.63332 569.02086 415.20312 581.89648 C 415.47334 588.00063 416.48312 596.86835 417.44727 601.60156 C 418.41145 606.33485 420.00452 623.89112 420.98828 640.61523 C 421.97209 657.33942 423.53437 680.01854 424.45898 691.01367 C 425.38358 702.0088 425.93374 711.2107 425.68164 711.46289 C 425.42952 711.71502 418.8496 710.87725 411.05859 709.60156 C 385.53817 705.42292 329.473 703.39554 283.60938 704.99219 C 250.64849 706.13962 237.4821 707.668 219.61133 712.42578 C 213.61588 714.02197 207.74697 715.61166 206.57031 715.95703 C 204.56131 716.54697 204.474 715.96828 205.12695 706.42578 C 205.5093 700.83823 206.37746 686.45573 207.05469 674.46484 C 207.73193 662.47395 208.46674 651.37266 208.68945 649.79492 C 208.91216 648.21715 209.13761 644.18446 209.18945 640.83398 C 209.24125 637.48339 209.67129 634.97417 210.14453 635.25781 C 210.61792 635.54203 211.11901 629.5059 211.25781 621.84375 C 211.74569 594.89225 217.11202 563.36861 225.34766 539.06641 C 230.97748 522.45356 234.8343 503.57917 233.93555 497.04492 C 233.51212 493.96559 233.40685 491.44531 233.70312 491.44531 C 233.99934 491.44531 237.13843 492.72578 240.67773 494.29102 C 261.4916 503.4959 299.9913 509.83176 323.75586 507.96094 L 336.07812 506.99023 L 314.27734 506.26562 C 289.06171 505.42782 265.10097 501.21352 248.25781 494.6543 C 232.36279 488.46431 233.78408 491.8909 236.14062 465.46484 C 239.18553 431.31969 237.94415 434.71608 250.04102 427.46484 C 263.01983 419.68493 263.88305 418.88127 267.99609 410.74023 C 270.02055 406.73319 271.12991 405.06907 272.21289 404.7793 z M 421.49609 430.92969 C 421.87386 430.22689 426.47089 431.89149 450.98633 440.23242 C 485.66752 452.0321 489.59754 454.00608 498.2793 463.99414 C 502.15499 468.45299 505.38349 472.7109 505.45117 473.45508 C 505.97162 479.18684 504.80343 494.55705 502.86328 507.50977 C 501.5871 516.02962 500.45563 523.08733 500.35156 523.19141 C 500.24734 523.29649 500.13658 516.84131 500.10156 508.84766 C 500.04086 494.72598 499.89397 493.89228 494.9375 479.39844 L 489.83594 464.48047 L 489.00977 482.83984 C 487.91471 507.14507 487.92128 507.1212 484.80078 497.75781 C 482.00162 489.35867 474.04862 473.33906 471.69727 471.36523 C 470.94549 470.73413 469.62242 468.8458 468.75781 467.16797 C 466.7564 463.2842 461.06719 457.02148 459.53906 457.02148 C 457.5459 457.02148 455.63603 466.22931 454.93555 479.23047 L 454.26562 491.68555 L 447.95508 476.44141 C 441.83486 461.65685 434.5968 449.53519 426.5957 440.66797 C 424.45863 438.29954 422.71094 435.88818 422.71094 435.31055 C 422.71094 434.7329 422.36541 433.36135 421.94336 432.26172 C 421.71283 431.66076 421.37017 431.16395 421.49609 430.92969 z M 394.7793 432.03125 C 404.64211 433.0206 422.71094 440.68496 422.71094 445.70312 C 422.71094 447.1712 421.2798 446.85203 418.69336 444.80859 C 414.36168 441.38629 404.31702 437.53244 396.26758 436.20312 C 391.41998 435.40256 388.37661 434.37134 388.625 433.61328 C 389.11604 432.11471 391.4917 431.70147 394.7793 432.03125 z M 191.99023 435.9043 C 193.29981 437.21387 187.88575 440.29999 171.41797 447.63281 C 161.63594 451.98855 149.50194 457.67195 144.45312 460.26367 C 139.40433 462.85537 132.43395 466.62811 128.96289 468.64648 L 122.65039 472.31641 L 126.07422 468.63086 C 130.75763 463.58791 148.34762 452.54918 158.79688 448.0957 C 172.16556 442.39793 191.41427 435.32836 191.99023 435.9043 z M 393.78516 443.05078 C 401.72734 443.14728 418.16771 448.68042 422.62305 454.04883 C 423.42121 455.01063 423.8791 456.3879 423.63867 457.10938 C 423.35738 457.95301 422.62828 457.73194 421.59766 456.49023 C 418.17664 452.36813 400.90532 446.69531 391.77734 446.69531 C 390.45947 446.69531 389.43359 445.94261 389.43359 444.97461 C 389.43359 443.59125 391.13776 443.01859 393.78516 443.05078 z M 404.46484 457.24414 C 412.58458 457.59726 421.5625 459.65196 421.5625 461.72461 C 421.5625 462.98299 419.48409 462.93749 416.39844 461.61133 C 415.13621 461.06884 409.06924 460.58976 402.91602 460.54492 C 391.17011 460.46032 388.04366 458.86204 396.99609 457.51953 C 399.14784 457.19687 401.75826 457.12634 404.46484 457.24414 z M 507.12695 476.64062 C 508.18734 475.58024 515.49625 498.13224 524.93945 531.60742 C 526.09662 535.70955 530.5153 550.6138 534.75977 564.72852 L 542.47852 590.39062 L 539.49805 595.70898 C 537.85998 598.63395 533.84087 608.77372 530.56641 618.24023 C 527.29195 627.70675 524.23009 636.14112 523.76172 636.98438 C 523.2935 637.82764 522.5889 624.11935 522.19531 606.52148 L 521.47852 574.52539 L 524.83398 563.73242 C 528.66371 551.41016 528.64138 549.46163 524.77148 558.25 C 521.49543 565.6889 520.95129 564.09424 521.61133 549.00391 L 522.08594 538.16016 L 519.0293 541.81836 C 517.34895 543.83116 512.41659 551.15789 508.06836 558.09961 C 497.08804 575.62905 496.83707 575.86452 500.83398 564.88281 C 502.78641 559.51847 506.44945 549.3398 508.97461 542.26367 L 513.56641 529.39844 L 511.63672 517.0957 C 509.24112 501.81879 506.50399 477.2636 507.12695 476.64062 z M 231.72656 500.62695 C 232.00477 500.62695 232.23242 501.14237 232.23242 501.77344 C 232.23242 502.40454 231.68599 502.92187 231.01758 502.92188 C 230.34851 502.92188 230.12203 502.40454 230.51172 501.77344 C 230.90189 501.14237 231.44828 500.62695 231.72656 500.62695 z M 395.04102 502.42773 C 395.60048 502.08194 396.32609 502.82695 396.6543 504.08203 C 397.04094 505.56088 396.68311 506.36328 395.63672 506.36328 C 393.86364 506.36328 393.41992 503.4297 395.04102 502.42773 z M 396.98828 509.80469 C 397.98746 509.80469 398.60138 510.41856 398.35156 511.16797 C 397.64234 513.29565 395.17187 513.64944 395.17188 511.62305 C 395.17188 510.62383 395.98906 509.80457 396.98828 509.80469 z M 229.01562 510.09766 C 229.15426 509.95902 229.34633 509.9772 229.55664 510.1875 C 229.97732 510.6082 229.97732 511.29611 229.55664 511.7168 C 229.13579 512.13749 228.79102 511.79469 228.79102 510.95312 C 228.79102 510.53247 228.87695 510.23636 229.01562 510.09766 z M 398.36914 514.71875 L 398.36914 514.7207 C 398.80264 514.57421 399.17056 514.57402 399.37891 514.77734 C 399.76924 515.16753 399.43525 516.2744 398.63672 517.23633 C 397.04154 519.15841 395.17188 519.55903 395.17188 517.97852 C 395.17188 516.87798 397.06863 515.15775 398.36914 514.71875 z M 227.60742 515.54297 C 228.21804 515.54297 228.42234 516.31702 228.05859 517.26367 C 227.69534 518.21032 227.19532 518.98633 226.94727 518.98633 C 226.69922 518.98633 226.49609 518.21032 226.49609 517.26367 C 226.49609 516.31702 226.99609 515.54297 227.60742 515.54297 z M 400.66797 520.25195 C 401.12214 520.25131 401.52265 520.36428 401.78516 520.62695 C 402.21296 521.05468 401.80295 521.88563 400.875 522.47266 C 398.65381 523.87677 397.4668 523.84958 397.4668 522.39258 C 397.4668 521.28335 399.30554 520.25392 400.66797 520.25195 z M 225.73047 521.66211 C 226.15115 521.24144 226.84104 521.24144 227.26172 521.66211 C 227.6824 522.08296 227.33771 522.42773 226.49609 522.42773 C 225.65478 522.42773 225.30979 522.08278 225.73047 521.66211 z M 224.46094 524.72266 C 225.09945 524.72266 225.30628 525.87823 224.92383 527.30469 C 224.54321 528.72465 224.22555 530.53153 224.2168 531.32031 C 224.2078 532.10908 223.78745 532.75391 223.2832 532.75391 C 222.77965 532.75391 222.57809 530.94716 222.83594 528.73828 C 223.09373 526.52945 223.82532 524.72266 224.46094 524.72266 z M 400.9082 524.72266 C 402.17043 524.72266 403.20312 524.92008 403.20312 525.16211 C 403.20312 525.40402 402.1704 525.87105 400.9082 526.20117 C 399.64598 526.53136 398.61328 526.33368 398.61328 525.76172 C 398.61328 525.1898 399.646 524.72275 400.9082 524.72266 z M 402.59375 528.16406 C 403.62025 528.16406 404.02144 528.83824 403.61914 529.88672 C 403.25591 530.83338 402.49719 531.60742 401.93359 531.60742 C 401.36995 531.60742 400.9082 530.83338 400.9082 529.88672 C 400.9082 528.94008 401.66687 528.16406 402.59375 528.16406 z M 404.88867 532.75391 C 405.98851 532.75391 406.32026 533.41732 405.8418 534.66406 C 405.32089 536.02166 405.53231 536.31189 406.57422 535.66797 C 407.66014 534.99692 407.83915 535.39416 407.26562 537.20117 C 406.68489 539.0309 406.97486 539.63867 408.42969 539.63867 C 410.02324 539.63867 410.11543 539.9468 408.94141 541.36133 C 406.72933 544.02674 405.49805 543.41016 405.49805 539.63867 C 405.49805 537.74543 404.98263 536.19727 404.35156 536.19727 C 403.72047 536.19727 403.20313 535.42321 403.20312 534.47656 C 403.20312 533.52994 403.96171 532.75391 404.88867 532.75391 z M 221.90625 533.90234 C 222.53735 533.90234 223.05273 534.41776 223.05273 535.04883 C 223.05273 535.67994 222.53734 536.19727 221.90625 536.19727 C 221.27516 536.19727 220.75781 535.67994 220.75781 535.04883 C 220.75781 534.41776 221.27516 533.90234 221.90625 533.90234 z M 220.75781 537.34375 C 221.38891 537.34375 221.90625 537.8611 221.90625 538.49219 C 221.90625 539.12329 221.38891 539.63867 220.75781 539.63867 C 220.12673 539.63867 219.61133 539.12326 219.61133 538.49219 C 219.61133 537.8611 220.12673 537.34375 220.75781 537.34375 z M 219.57617 540.90039 C 219.95648 541.23614 220.12245 542.40962 219.85547 544.22852 C 219.57761 546.12173 218.89345 547.67188 218.33398 547.67188 C 217.15871 547.67188 217.00514 545.23066 218.01367 542.60156 C 218.60253 541.06695 219.19584 540.56461 219.57617 540.90039 z M 410.15625 543.08203 C 410.75004 543.08203 411.23633 543.59742 411.23633 544.22852 C 411.23633 544.85958 410.43121 545.37695 409.44727 545.37695 C 408.46296 545.37695 407.97722 544.85958 408.36719 544.22852 C 408.7572 543.59742 409.56248 543.08203 410.15625 543.08203 z M 411.80859 546.52344 C 412.75523 546.52344 413.53125 547.02199 413.53125 547.63086 C 413.53125 548.23975 412.42044 549.3319 411.0625 550.05859 C 408.93085 551.19931 408.69435 551.11399 409.33984 549.43164 C 409.75098 548.36 410.08789 547.26775 410.08789 547.00391 C 410.08789 546.74012 410.86196 546.52344 411.80859 546.52344 z M 215.99023 549.50195 C 217.09988 548.81617 218.46289 549.81059 218.46289 551.30469 C 218.46289 551.83045 217.97658 552.26172 217.38281 552.26172 C 215.82569 552.26172 214.8035 550.23538 215.99023 549.50195 z M 414.11719 551.9668 C 414.7494 551.9196 415.37452 552.48595 415.60742 553.69531 C 415.84932 554.95136 415.2854 555.70312 414.10352 555.70312 C 413.00108 555.70312 412.36944 554.96151 412.58594 553.92188 C 412.84537 552.6757 413.48499 552.01414 414.11719 551.9668 z M 215.02148 553.4082 C 215.65258 553.4082 216.16797 554.44091 216.16797 555.70312 C 216.16797 556.96536 215.65257 557.99805 215.02148 557.99805 C 214.39039 557.99805 213.87305 556.96533 213.87305 555.70312 C 213.87305 554.44092 214.39039 553.4082 215.02148 553.4082 z M 415.96094 556.85156 C 416.59222 556.85156 416.78821 557.36695 416.39844 557.99805 C 416.00837 558.62913 415.17408 559.14648 414.54297 559.14648 C 413.9117 559.14648 413.71362 558.62913 414.10352 557.99805 C 414.49357 557.36695 415.32996 556.85156 415.96094 556.85156 z M 214.25586 559.52734 C 214.67654 559.10667 215.36642 559.10667 215.78711 559.52734 C 216.20779 559.94822 215.86301 560.29297 215.02148 560.29297 C 214.18012 560.29297 213.83518 559.94802 214.25586 559.52734 z M 417.75 560.33203 C 417.97995 560.45431 418.12109 560.72396 418.12109 561.16406 C 418.12071 561.64345 417.05742 562.69999 415.75781 563.51172 C 413.57518 564.87474 413.4902 564.80858 414.65039 562.64062 C 415.56518 560.93133 417.05978 559.96539 417.75 560.33203 z M 212.6582 562.58789 C 213.25205 562.58789 214.05728 563.10527 214.44727 563.73633 C 214.83744 564.36744 214.35113 564.88281 213.36719 564.88281 C 212.38337 564.88281 211.57813 564.36744 211.57812 563.73633 C 211.57812 563.10527 212.06443 562.58789 212.6582 562.58789 z M 211.57812 566.03125 C 212.20923 566.03125 212.72656 567.3207 212.72656 568.89844 C 212.72656 571.90262 212.4622 572.26693 211.19727 571.00195 C 210.00685 569.81163 210.29605 566.03125 211.57812 566.03125 z M 418.90039 566.06055 C 419.76922 565.97155 420.47407 566.5981 420.19922 568.02539 C 419.98795 569.12248 418.95776 570.18496 417.91016 570.38672 C 416.48927 570.66015 416.16246 570.15354 416.62305 568.39258 C 416.999 566.95491 418.03158 566.14967 418.90039 566.06055 z M 421.42773 571.91797 C 421.63083 572.00667 421.59035 572.49674 421.4082 573.43164 C 421.17767 574.62118 420.3433 575.8097 419.55469 576.07227 C 417.50767 576.7538 417.78143 574.62673 419.97461 572.80664 C 420.77674 572.14123 421.22433 571.82929 421.42773 571.91797 z M 209.85742 574.0625 C 210.80406 574.0625 211.57812 574.83657 211.57812 575.7832 C 211.57812 576.72984 210.80406 577.50586 209.85742 577.50586 C 208.91077 577.50586 208.13672 576.72984 208.13672 575.7832 C 208.13672 574.83657 208.91077 574.0625 209.85742 574.0625 z M 419.9375 578.65234 C 420.93668 578.65234 421.55061 579.26623 421.30078 580.01562 C 420.59159 582.14332 418.12109 582.49527 418.12109 580.46875 C 418.12109 579.46954 418.93827 578.65234 419.9375 578.65234 z M 209.94141 579.80078 C 211.01 579.80078 211.59659 580.58063 211.37695 581.71289 C 210.81865 584.59158 208.13672 584.98743 208.13672 582.19141 C 208.13672 580.78187 208.87698 579.80078 209.94141 579.80078 z M 420.49609 583.47852 C 421.7547 583.39422 423.05045 585.28915 422.32422 587.18164 C 421.94474 588.17068 421.15761 588.98047 420.57422 588.98047 C 418.968 588.98047 418.20381 586.11098 419.32617 584.29492 C 419.66097 583.75329 420.07654 583.50665 420.49609 583.47852 z M 208.01367 586.68555 C 208.57711 586.68555 209.33595 587.45958 209.69922 588.40625 C 210.10149 589.45468 209.69965 590.12695 208.67383 590.12695 C 207.74697 590.12695 206.98828 589.35288 206.98828 588.40625 C 206.98828 587.45958 207.45007 586.68555 208.01367 586.68555 z M 420.98828 591.27344 C 421.94445 591.27344 422.71094 592.29309 422.71094 593.56836 C 422.71094 594.84323 421.94445 595.86328 420.98828 595.86328 C 420.03209 595.86328 419.26758 594.84335 419.26758 593.56836 C 419.26758 592.29324 420.03209 591.27344 420.98828 591.27344 z M 208.13672 592.42188 C 208.7678 592.42188 209.2832 593.97001 209.2832 595.86328 C 209.2832 599.42834 209.05033 599.8394 207.75391 598.54297 C 206.55275 597.34179 206.86037 592.42188 208.13672 592.42188 z M 421.49414 598.1582 C 422.79356 598.1582 423.85742 598.67577 423.85742 599.30664 C 423.85742 599.93753 423.11443 600.45312 422.20508 600.45312 C 421.29562 600.45312 420.23177 599.93753 419.8418 599.30664 C 419.45187 598.67571 420.19462 598.1582 421.49414 598.1582 z M 206.86523 601.60156 C 207.89008 601.60156 209.2832 604.29968 209.2832 606.28516 C 209.2832 606.86467 208.50914 607.33789 207.5625 607.33789 C 206.49147 607.33789 205.8418 606.25565 205.8418 604.4707 C 205.8418 602.89287 206.30162 601.60156 206.86523 601.60156 z M 422.13672 601.60156 C 423.20775 601.60156 423.85742 602.68583 423.85742 604.4707 C 423.85742 607.25665 422.73971 608.13427 421.17969 606.57422 C 419.73616 605.13075 420.41569 601.60156 422.13672 601.60156 z M 423.2832 609.63281 C 424.23939 609.63281 425.00586 610.6527 425.00586 611.92773 C 425.00586 613.2026 424.23939 614.22266 423.2832 614.22266 C 422.32699 614.22266 421.5625 613.20272 421.5625 611.92773 C 421.5625 610.65281 422.32699 609.63281 423.2832 609.63281 z M 206.08008 610.12891 C 206.3859 610.02241 206.72731 610.04514 207.06836 610.25586 C 207.65578 610.61873 208.13645 611.66113 208.13672 612.57031 C 208.13614 614.46305 206.32264 614.78516 205.26758 613.07617 C 204.56576 611.94063 205.16251 610.44855 206.08008 610.12891 z M 205.8418 615.37109 C 206.47289 615.37109 206.98828 616.92112 206.98828 618.81445 C 206.98828 622.3795 206.75538 622.78658 205.45898 621.49023 C 204.25788 620.28898 204.56556 615.37109 205.8418 615.37109 z M 423.98828 615.67188 C 424.67529 615.62527 425.45755 616.15584 425.8418 617.30859 C 426.06562 617.98017 425.45383 618.83762 424.48047 619.21094 C 423.24021 619.68679 422.71094 619.18753 422.71094 617.53516 C 422.71094 616.35481 423.3013 615.72116 423.98828 615.67188 z M 551.99609 619.13867 L 556.16797 626.88477 C 560.11401 634.21151 560.30371 635.04164 559.63477 642.20508 L 558.92578 649.7793 L 570.03516 661.08594 C 582.38579 673.65679 582.33223 673.21376 571.99805 677.28711 C 565.06278 680.02071 556.32774 685.5433 549.48438 691.52148 L 544.91406 695.51367 L 549.02539 697.25977 C 553.31878 699.08307 585.25474 707.16797 588.16406 707.16797 C 590.28734 707.16797 593.27251 710.45483 599.41211 719.55859 L 604.28516 726.78516 L 604.60156 752.83398 C 604.77547 767.16083 605.28396 779.78613 605.73242 780.89062 C 607.05365 784.14415 604.95643 783.1368 598.84375 777.58203 C 593.25031 772.4991 573.20799 755.93489 567.0957 751.34375 C 560.92999 746.71244 545.96433 734.77559 542.61914 731.82031 L 539.17578 728.7793 L 544.33984 731.58008 C 548.93977 734.0756 578.27012 752.0407 592.87891 761.31055 C 599.77873 765.68879 599.57109 765.97801 600.2832 750.95508 C 600.85927 738.80173 600.79235 738.32981 598.14062 736.0332 C 595.37729 733.63997 579.96554 724.04238 573.60156 720.75195 C 571.70827 719.77305 563.70322 715.62935 555.81445 711.54297 C 547.92574 707.45655 539.79325 703.53705 537.74219 702.83203 C 533.99708 701.54458 533.00855 699.89261 535.17969 698.55078 C 535.82104 698.15414 535.99996 697.26904 535.57617 696.58398 C 535.14562 695.88799 535.3337 695.66995 536.00391 696.08008 C 540.01952 698.56182 561.55273 679.18522 561.55273 673.08984 C 561.55273 669.60882 554.31315 643.32093 552.99023 641.99805 C 551.8999 640.9077 549.38725 644.49446 537.30469 664.38867 C 521.17274 690.95025 518.64125 692.04684 529.94141 667.58008 C 530.81585 665.68681 534.11387 658.1921 537.27148 650.92578 C 540.42912 643.65937 545.03352 633.53432 547.50391 628.42578 L 551.99609 619.13867 z M 424.43164 621.10938 C 425.38783 621.10938 426.15234 622.12927 426.15234 623.4043 C 426.15234 624.67923 425.38783 625.69922 424.43164 625.69922 C 423.47544 625.69922 422.71094 624.67934 422.71094 623.4043 C 422.71094 622.12944 423.47544 621.10938 424.43164 621.10938 z M 205.26758 624.55078 C 206.22376 624.55078 206.98828 625.57069 206.98828 626.8457 C 206.98828 628.12056 206.22376 629.14062 205.26758 629.14062 C 204.31139 629.14062 203.54687 628.12075 203.54688 626.8457 C 203.54688 625.5708 204.31139 624.55078 205.26758 624.55078 z M 424.53906 627.99414 C 425.42673 627.99414 426.15234 629.02688 426.15234 630.28906 C 426.15234 631.55128 425.69621 632.58398 425.13867 632.58398 C 424.5811 632.58398 423.8555 631.55122 423.52539 630.28906 C 423.13522 628.79755 423.49003 627.99414 424.53906 627.99414 z M 204.04102 630.87695 C 204.41768 630.81895 204.85055 630.86076 205.29883 631.0332 C 206.22205 631.38729 206.69102 632.13817 206.3418 632.70312 C 205.59802 633.90669 204.23268 634.03145 203.19531 632.99609 C 202.27894 632.07969 202.91112 631.04631 204.04102 630.87695 z M 425.57812 634.87891 C 427.50941 634.87891 427.58765 635.08751 426.60352 637.65234 C 425.61968 640.21616 423.85742 639.90766 423.85742 637.17383 C 423.85742 635.89893 424.62196 634.87891 425.57812 634.87891 z M 204.42773 635.16211 C 205.169 635.0539 205.8418 635.85302 205.8418 637.65039 C 205.8418 639.57864 205.2107 640.61523 204.03906 640.61523 C 202.84311 640.61523 202.3619 639.778 202.60547 638.12305 C 202.87578 636.28627 203.68648 635.27032 204.42773 635.16211 z M 425.57812 640.61523 C 426.52477 640.61523 427.30078 641.38927 427.30078 642.33594 C 427.30078 643.2826 426.52476 644.05859 425.57812 644.05859 C 424.63146 644.05859 423.85742 643.2826 423.85742 642.33594 C 423.85742 641.38927 424.63146 640.61523 425.57812 640.61523 z M 201.74219 643.27539 C 202.19089 642.93468 203.04604 642.91218 204.14453 643.33398 C 205.15705 643.72301 205.66536 644.56173 205.27344 645.19727 C 204.34333 646.70296 202.73023 646.66757 201.77734 645.12891 C 201.24932 644.27495 201.29045 643.616 201.74219 643.27539 z M 426.07422 646.35352 C 426.6628 646.35352 427.48931 647.43797 427.91016 648.76367 C 428.69647 651.241 427.18864 653.88986 425.78906 652.49023 C 424.61364 651.31469 424.8441 646.35352 426.07422 646.35352 z M 202.11133 647.88672 C 202.9002 647.5687 204.1915 647.5687 204.98047 647.88672 C 205.76938 648.20528 205.12458 648.4668 203.54688 648.4668 C 201.96861 648.4668 201.32237 648.20522 202.11133 647.88672 z M 203.92578 649.99805 C 205.25668 649.74009 205.62357 650.17347 205.14062 651.43164 C 204.32663 653.55311 200.83667 653.91151 201.53906 651.80273 C 201.80173 651.01391 202.87592 650.20188 203.92578 649.99805 z M 427.04102 654.64648 C 427.76554 654.53529 428.44727 655.53163 428.44727 657.73242 C 428.44727 660.0469 427.87606 661.26953 426.79492 661.26953 C 425.7102 661.26953 425.22451 660.21561 425.37891 658.20312 C 425.55019 655.976 426.31651 654.75795 427.04102 654.64648 z M 202.97266 655.5332 C 203.92884 655.5332 204.69336 656.55308 204.69336 657.82812 C 204.69336 659.10299 203.92884 660.12305 202.97266 660.12305 C 202.01647 660.12305 201.25195 659.10316 201.25195 657.82812 C 201.25195 656.55321 202.01647 655.5332 202.97266 655.5332 z M 202.97266 662.41797 C 204.90393 662.41797 204.98216 662.62698 203.99805 665.19141 C 203.01421 667.75521 201.25195 667.44871 201.25195 664.71289 C 201.25195 663.43805 202.01647 662.41797 202.97266 662.41797 z M 427.13672 662.67383 C 428.0913 662.86613 428.89048 664.92069 429.1543 667.86719 C 429.47834 671.4862 429.17664 672.74414 427.98633 672.74414 C 426.91034 672.74414 426.24793 671.0346 425.9707 667.54883 C 425.65636 663.59656 425.93468 662.43212 427.13672 662.67383 z M 202.13672 669.61133 C 202.87685 669.50256 203.54687 670.10159 203.54688 671.5 C 203.54688 672.90952 202.80661 673.89258 201.74219 673.89258 C 200.67361 673.89258 200.087 673.11075 200.30664 671.97852 C 200.58579 670.53919 201.39661 669.72042 202.13672 669.61133 z M 427.82227 675.08008 C 428.70033 675.25429 429.66473 675.86049 430.00977 676.75977 C 430.38827 677.74667 430.03279 678.48047 429.17578 678.48047 C 427.47067 678.48047 426.15234 677.39597 426.15234 675.99414 C 426.15234 675.16338 426.94419 674.90592 427.82227 675.08008 z M 201.71875 676.1875 C 202.7673 676.1875 203.12241 676.99089 202.73242 678.48242 C 202.4023 679.74466 201.67474 680.77734 201.11719 680.77734 C 200.55963 680.77734 200.10352 679.7446 200.10352 678.48242 C 200.10352 677.22019 200.83127 676.1875 201.71875 676.1875 z M 430.25586 681.25195 C 431.32874 681.27525 431.58341 682.27066 431.05664 684.28516 L 431.05859 684.28516 C 430.7381 685.51074 429.76177 686.51367 428.88867 686.51367 C 426.80987 686.51367 426.82886 682.34963 428.9082 681.55078 C 429.44869 681.34358 429.89823 681.24439 430.25586 681.25195 z M 200.14062 683.07031 C 200.79147 683.07031 201.61543 683.82807 201.9707 684.75391 C 202.85672 687.06289 202.11722 688.56531 200.39062 687.9668 C 198.67065 687.37054 198.45127 683.07031 200.14062 683.07031 z M 520.81836 688.80859 C 521.13391 688.80859 521.39063 689.06728 521.39062 689.38281 C 521.39062 689.69849 521.13402 689.95508 520.81836 689.95508 C 520.50278 689.95508 520.24414 689.69738 520.24414 689.38281 C 520.24414 689.06715 520.50278 688.80859 520.81836 688.80859 z M 429.5957 689.38281 C 430.43714 689.38281 431.34054 690.02765 431.60352 690.81641 C 431.88804 691.66943 431.07455 692.25 429.5957 692.25 C 428.11674 692.25 427.30338 691.6699 427.58789 690.81641 C 427.85081 690.02765 428.75421 689.38281 429.5957 689.38281 z M 199.38086 690.01367 C 200.22946 689.90887 201.20421 690.47117 201.70312 691.77148 C 202.08619 692.76969 202.39844 693.80257 202.39844 694.06641 C 202.39844 694.3302 201.3657 694.54492 200.10352 694.54492 C 198.57361 694.54492 197.80859 693.77982 197.80859 692.25 C 197.80859 690.8884 198.53226 690.11825 199.38086 690.01367 z M 430.16797 693.39844 C 431.23901 693.39844 431.89063 694.48263 431.89062 696.26758 C 431.89062 698.05251 431.23901 699.13477 430.16797 699.13477 C 429.09696 699.13477 428.44727 698.05251 428.44727 696.26758 C 428.44727 694.48263 429.09696 693.39844 430.16797 693.39844 z M 198.95703 696.83984 C 200.23193 696.83984 201.25195 697.6063 201.25195 698.5625 C 201.25195 699.51869 200.23206 700.2832 198.95703 700.2832 C 197.68214 700.2832 196.66211 699.51869 196.66211 698.5625 C 196.66211 697.6063 197.682 696.83984 198.95703 696.83984 z M 430.33008 701.60547 C 431.29883 701.69337 432.32296 702.52094 432.54102 704.01172 C 432.73334 705.32618 432.07646 706.01953 430.64062 706.01953 C 429.18642 706.01953 428.44727 705.21997 428.44727 703.64258 C 428.44727 702.17162 429.36135 701.51768 430.33008 701.60547 z M 528.6582 701.8125 C 529.07887 701.39197 529.76878 701.39197 530.18945 701.8125 C 530.61013 702.23358 530.26527 702.57812 529.42383 702.57812 C 528.58248 702.57812 528.23753 702.23294 528.6582 701.8125 z M 526.68945 702.57812 C 527.00519 702.57812 526.94485 703.0938 526.55469 703.72461 C 526.16466 704.35557 525.58705 704.87305 525.27148 704.87305 C 524.95578 704.87305 525.01612 704.35551 525.40625 703.72461 C 525.79623 703.09333 526.37392 702.57813 526.68945 702.57812 z M 198.95703 703.72461 C 200.43957 703.72461 201.25195 704.49059 201.25195 705.88672 C 201.25195 707.08289 200.22721 708.31649 198.95703 708.64844 C 197.13172 709.12606 196.66211 708.68233 196.66211 706.48633 C 196.66211 704.49014 197.29793 703.72461 198.95703 703.72461 z M 430.6582 707.16797 C 431.75619 707.16797 432.6543 707.92044 432.6543 708.83984 C 432.6543 711.43096 429.89256 711.87107 429.24219 709.38281 C 428.83374 707.82075 429.25036 707.16797 430.6582 707.16797 z M 197.80859 711.75781 C 199.08348 711.75781 200.10352 712.52229 200.10352 713.47852 C 200.10352 714.43466 199.08362 715.19922 197.80859 715.19922 C 196.53371 715.19922 195.51367 714.43466 195.51367 713.47852 C 195.51367 712.52229 196.53356 711.75781 197.80859 711.75781 z M 430.61719 712.95703 C 431.19057 712.82195 431.888 713.12154 432.38867 713.93164 C 432.73789 714.49659 432.2535 715.25549 431.31055 715.61719 C 430.269 716.0167 429.5957 715.61396 429.5957 714.58984 C 429.5957 713.66188 430.04378 713.092 430.61719 712.95703 z M 197.23633 717.49414 C 198.19251 717.49414 198.95703 718.51409 198.95703 719.78906 C 198.95703 721.06399 198.19251 722.08398 197.23633 722.08398 C 196.28016 722.08398 195.51367 721.0641 195.51367 719.78906 C 195.51367 718.5142 196.28014 717.49414 197.23633 717.49414 z M 431.40039 717.49414 C 432.46895 717.49414 433.05359 718.27592 432.83398 719.4082 C 432.27566 722.28687 429.5957 722.68513 429.5957 719.88477 C 429.5957 718.47522 430.33595 717.49414 431.40039 717.49414 z M 197.30273 724.37891 C 198.21207 724.37891 198.95703 725.15296 198.95703 726.09961 C 198.95703 727.86886 198.29988 728.06853 195.79492 727.05859 C 193.98706 726.32972 195.08437 724.37891 197.30273 724.37891 z M 431.31641 724.37891 C 432.26304 724.37891 433.03711 725.15296 433.03711 726.09961 C 433.03711 727.04626 432.26304 727.82227 431.31641 727.82227 C 430.36973 727.82227 429.5957 727.04626 429.5957 726.09961 C 429.5957 725.15296 430.36973 724.37891 431.31641 724.37891 z M 195.96484 730.11719 C 196.84393 730.11719 197.86136 730.89128 198.22461 731.83789 C 198.67391 733.00873 198.16342 733.55859 196.62695 733.55859 C 195.38409 733.55859 194.36719 732.7849 194.36719 731.83789 C 194.36719 730.89128 195.08568 730.11719 195.96484 730.11719 z M 431.19336 730.11719 C 432.07241 730.11719 433.08987 730.89128 433.45312 731.83789 C 433.90242 733.00873 433.39004 733.55859 431.85352 733.55859 C 430.61048 733.55859 429.5957 732.7849 429.5957 731.83789 C 429.5957 730.89128 430.31419 730.11719 431.19336 730.11719 z M 196.47266 736.20898 C 196.79496 736.32486 197.07188 736.73737 197.34961 737.46094 C 197.7696 738.55555 197.54579 740.01864 196.85156 740.71289 C 195.93361 741.63089 195.38162 741.43186 194.82617 739.98438 C 194.40619 738.88977 194.62998 737.42667 195.32422 736.73242 C 195.78316 736.27346 196.15036 736.09417 196.47266 736.20898 z M 432.47656 736.70703 C 433.10878 736.66043 433.73393 737.2261 433.9668 738.43555 C 434.2087 739.69162 433.64671 740.44336 432.46484 740.44336 C 431.36238 740.44336 430.72881 739.7017 430.94531 738.66211 C 431.20473 737.41605 431.84436 736.75436 432.47656 736.70703 z M 432.85938 742.98828 C 433.84729 742.65979 434.26139 743.21143 434.00781 744.51953 C 433.78983 745.64427 432.91556 746.79564 432.06641 747.07812 C 431.07846 747.40661 430.66634 746.85705 430.91992 745.54883 C 431.1382 744.42406 432.0102 743.27074 432.85938 742.98828 z M 196.08789 743.71484 C 196.68742 743.71484 197.36363 744.26905 197.58984 744.94727 C 197.81605 745.62579 197.13967 746.18164 196.08789 746.18164 C 195.0361 746.18164 194.36168 745.62562 194.58789 744.94727 C 194.8141 744.26875 195.48836 743.71484 196.08789 743.71484 z M 196.56836 748.63672 C 197.51291 748.95183 197.43721 749.69209 196.30273 751.24414 C 195.43055 752.43647 194.41316 752.92322 194.04297 752.32422 C 193.10753 750.81068 194.96301 748.10146 196.56836 748.63672 z M 433.14258 748.89844 C 434.2947 749.33584 435.36903 751.1108 434.93164 752.49219 C 434.73175 753.1233 433.70836 753.80594 432.65625 754.00977 C 430.45903 754.43612 429.92961 750.26114 432.01758 748.9707 C 432.36609 748.75535 432.75852 748.75255 433.14258 748.89844 z M 195.51367 754.21289 C 196.78856 754.21289 197.80859 754.97744 197.80859 755.93359 C 197.80859 756.88982 196.7887 757.65625 195.51367 757.65625 C 194.23878 757.65625 193.21875 756.88982 193.21875 755.93359 C 193.21875 754.97744 194.23864 754.21289 195.51367 754.21289 z M 432.77539 756.81836 C 433.51551 756.70958 434.18555 757.30865 434.18555 758.70703 C 434.18555 760.11639 433.44334 761.09766 432.37891 761.09766 C 431.31049 761.09766 430.72567 760.31776 430.94531 759.18555 C 431.22457 757.74613 432.03527 756.92749 432.77539 756.81836 z M 194.94141 759.94922 C 195.88807 759.94922 196.66211 760.72528 196.66211 761.67188 C 196.66211 762.61855 195.88807 763.39258 194.94141 763.39258 C 193.99477 763.39258 193.21875 762.61854 193.21875 761.67188 C 193.21875 760.72528 193.99477 759.94922 194.94141 759.94922 z M 432.46484 763.39258 C 433.41147 763.39258 434.18555 764.16668 434.18555 765.11328 C 434.18555 766.05998 434.05604 766.79655 433.89844 766.74414 C 430.4457 765.65378 429.47864 763.39258 432.46484 763.39258 z M 195.29883 765.95117 C 196.04826 765.70139 196.66211 766.31331 196.66211 767.3125 C 196.66211 768.31168 195.84491 769.13086 194.8457 769.13086 C 192.81935 769.13086 193.1714 766.66033 195.29883 765.95117 z M 432.46484 767.98242 C 433.53585 767.98242 434.18555 769.06661 434.18555 770.85156 C 434.18555 772.63651 433.53585 773.71875 432.46484 773.71875 C 431.3938 773.71875 430.74219 772.63646 430.74219 770.85156 C 430.74219 769.06661 431.3938 767.98242 432.46484 767.98242 z M 194.36719 771.42383 C 194.99828 771.42383 195.51367 772.19982 195.51367 773.14648 C 195.51367 774.09309 194.99828 774.86719 194.36719 774.86719 C 193.73592 774.86719 193.21875 774.09309 193.21875 773.14648 C 193.21875 772.19982 193.7361 771.42383 194.36719 771.42383 z M 432.50586 776.10742 C 433.14506 776.10742 433.78871 777.22299 433.95898 779.45703 C 434.14107 781.84522 433.70197 782.89844 432.52734 782.89844 C 431.35776 782.89844 430.90967 781.83537 431.07617 779.45898 C 431.23258 777.2247 431.86662 776.10789 432.50586 776.10742 z M 194.36719 777.16211 C 195.64206 777.16211 196.66211 777.9266 196.66211 778.88281 C 196.66211 780.62966 194.23539 781.23731 192.83789 779.83984 C 191.38306 778.38505 192.08117 777.16211 194.36719 777.16211 z M 194.88086 783.07617 C 196.18905 782.82287 196.74082 783.23738 196.41211 784.22461 C 196.12933 785.07379 194.97833 785.94625 193.85352 786.16406 C 192.54534 786.41735 191.99337 786.00498 192.32227 785.01758 C 192.60503 784.1684 193.75607 783.29397 194.88086 783.07617 z M 432.71289 785.37305 C 433.73417 785.46265 434.82891 786.29395 435.11719 787.78906 C 435.38186 789.16534 434.76279 789.78516 433.12109 789.78516 C 431.47897 789.78516 430.74219 789.04637 430.74219 787.4043 C 430.74219 785.93415 431.6914 785.28334 432.71289 785.37305 z M 194.96094 789.14453 C 195.36601 789.13313 195.72145 789.22572 195.94531 789.44922 C 196.30537 789.80919 196.3245 790.54666 195.98828 791.08984 C 195.18271 792.3957 192.07227 792.37106 192.07227 791.05469 C 192.07227 790.10491 193.74581 789.1731 194.96094 789.14453 z M 432.46484 792.08008 C 433.41147 792.08008 434.18555 792.85419 434.18555 793.80078 C 434.18555 794.74748 433.41147 795.52148 432.46484 795.52148 C 431.5182 795.52148 430.74219 794.74748 430.74219 793.80078 C 430.74219 792.85419 431.5182 792.08008 432.46484 792.08008 z M 193.87695 794.375 C 194.94552 794.375 195.53213 795.15483 195.3125 796.28711 C 194.75419 799.16577 192.07227 799.564 192.07227 796.76367 C 192.07227 795.35409 192.81252 794.375 193.87695 794.375 z M 432.75 796.75977 C 434.02694 796.81807 434.22039 797.0673 433.27734 797.44531 C 432.35415 797.81573 432.17685 798.53729 432.81055 799.36133 C 433.37004 800.08884 434.15115 801.58886 434.54492 802.69336 C 435.45809 805.25525 432.42081 805.44397 431.43945 802.88672 C 430.10333 799.40461 430.68826 796.66599 432.75 796.75977 z M 316.64648 798.96484 C 316.48043 798.76407 316.36523 800.47803 316.36523 803.55469 C 316.36523 807.65663 316.57374 809.33432 316.82812 807.2832 C 317.08258 805.23214 317.08258 801.87528 316.82812 799.82422 C 316.76452 799.3117 316.70364 799.0319 316.64844 798.96484 L 316.64648 798.96484 z M 194.19141 800.40625 C 194.89759 800.30558 195.51367 800.72344 195.51367 801.73633 C 195.51367 802.73561 194.69647 803.55469 193.69727 803.55469 C 192.69806 803.55469 192.08615 802.9408 192.33594 802.19141 C 192.69058 801.12748 193.48521 800.50718 194.19141 800.40625 z M 425.42578 801.30078 C 427.68367 800.87385 428.35181 802.863 428.98828 808.80664 C 429.97872 818.05522 429.86666 818.18815 425.44531 812.92188 C 420.54625 807.08649 419.70361 804.01595 422.58008 802.47656 C 423.74324 801.85407 424.67314 801.44305 425.42578 801.30078 z M 193.79297 805.84961 C 194.74916 805.84961 195.51367 806.86953 195.51367 808.14453 C 195.51367 810.43044 194.29264 811.12859 192.83789 809.67383 C 191.44034 808.2763 192.04607 805.84961 193.79297 805.84961 z M 433.03711 805.84961 C 433.66821 805.84961 434.22292 806.49426 434.26953 807.2832 C 434.31673 808.0721 434.57316 809.87879 434.83789 811.29883 C 435.11833 812.80319 434.74743 813.88086 433.94922 813.88086 C 432.89159 813.88086 432.88921 814.19494 433.95508 815.25781 C 434.71227 816.01511 435.33203 817.56325 435.33203 818.69922 C 435.33203 821.24896 433.53121 821.4117 432.58594 818.94922 C 431.44703 815.98114 431.79596 805.85461 433.03711 805.84961 z " />
</svg>
